<svg version="1.1" xmlns="http://www.w3.org/2000/svg" style="display: block;" viewBox="200 150 1700 1750" preserveAspectRatio="xMidYMid meet">
<defs>
	<linearGradient id="Gradient1" gradientUnits="userSpaceOnUse" x1="1611.41" y1="1616.92" x2="875.109" y2="873.759">
		<stop class="stop0" offset="0" stop-opacity="1" stop-color="rgb(139,113,187)"/>
		<stop class="stop1" offset="1" stop-opacity="1" stop-color="rgb(209,144,184)"/>
	</linearGradient>
</defs>
<path fill="rgb(252,253,253)" d="M 296.127 630.203 C 324.058 574.213 358.058 521.462 397.515 472.902 C 532.308 306.318 728.082 200.507 941.288 179.006 C 1103.36 162.466 1266.67 195.008 1410.02 272.411 C 1442.75 290.064 1482.75 315.089 1511.85 338.592 C 1529.01 349.924 1562.99 380.35 1578.26 394.64 C 1703.49 513.781 1789.19 668.446 1823.81 837.794 C 1873.28 1069.24 1828.52 1310.87 1699.43 1509.24 C 1582.88 1686.9 1400.97 1811.43 1193.18 1855.8 C 981.098 1900.72 759.858 1859.06 578.639 1740.08 C 517.351 1699.53 461.898 1650.79 413.821 1595.22 C 407.917 1588.51 388.576 1565.98 384.558 1558.69 C 373.559 1547.29 351.901 1514.19 343.035 1500.48 C 290.75 1419.65 251.789 1328.39 229.604 1234.51 C 189.791 1067.41 198.352 892.417 254.288 729.992 C 261.885 707.756 270.532 685.893 280.201 664.476 C 283.358 657.308 288.397 645.292 292.363 638.87 C 293.502 635.839 294.78 633.135 296.127 630.203 z"/>
<path fill="url(#Gradient1)" d="M 1401.83 309.599 C 1415.03 311.388 1422.69 323.989 1437.2 323.835 C 1439.87 323.807 1447.62 329.395 1452.45 329.182 L 1454.8 326.321 L 1456.05 327.017 C 1454.86 329.232 1454.22 330.027 1453.56 332.457 L 1454.93 333.374 L 1457.01 331.281 C 1462.74 333.305 1465.87 339.562 1470.4 336.696 C 1472.52 335.359 1473.16 335.02 1475.59 335.127 C 1480.67 341.987 1492.8 338.092 1503.1 345.05 C 1505.62 344.999 1505.14 345.316 1507.28 344.421 C 1507.39 340.27 1503.13 342.387 1505.63 338.367 C 1508.14 338.105 1509.82 338.715 1511.85 338.592 C 1529.01 349.924 1562.99 380.35 1578.26 394.64 C 1703.49 513.781 1789.19 668.446 1823.81 837.794 C 1873.28 1069.24 1828.52 1310.87 1699.43 1509.24 C 1582.88 1686.9 1400.97 1811.43 1193.18 1855.8 C 981.098 1900.72 759.858 1859.06 578.639 1740.08 C 517.351 1699.53 461.898 1650.79 413.821 1595.22 C 407.917 1588.51 388.576 1565.98 384.558 1558.69 L 385.459 1556.97 C 384.31 1552.95 385.065 1554.39 381.288 1551.46 C 380.905 1549.59 380.324 1547.65 380.815 1545.65 C 383.249 1535.79 371.769 1528.1 374.182 1518.14 C 374.921 1515.09 367.953 1507.36 365.813 1504.69 C 367.253 1502.92 367.248 1502.94 368.389 1501.1 C 366.79 1494.93 366.943 1501.04 364.555 1496.42 L 365.018 1495 C 366.951 1488.91 366.837 1490 363.747 1484.08 C 366.097 1472.34 359.901 1479.12 358.622 1470.06 L 361.466 1467.65 C 361.742 1462.66 360.341 1461.65 357.575 1457.01 L 358.352 1454.08 C 410.746 1544.67 489.815 1629.77 574.189 1691.22 C 738.857 1809.75 943.601 1858.61 1144.05 1827.21 C 1348.88 1794.68 1532 1681.09 1652.14 1512.03 C 1780.34 1334.89 1830.08 1102.73 1795.05 887.715 C 1765.2 692.842 1665.68 515.41 1514.96 388.324 C 1491.06 368.535 1466.02 350.173 1439.96 333.331 C 1430.07 326.925 1411.26 316.571 1403.17 310.605 L 1401.83 309.599 z"/>
<path fill="rgb(239,150,180)" d="M 296.127 630.203 C 324.058 574.213 358.058 521.462 397.515 472.902 C 532.308 306.318 728.082 200.507 941.288 179.006 C 1103.36 162.466 1266.67 195.008 1410.02 272.411 C 1442.75 290.064 1482.75 315.089 1511.85 338.592 C 1509.82 338.715 1508.14 338.105 1505.63 338.367 C 1503.13 342.387 1507.39 340.27 1507.28 344.421 C 1505.14 345.316 1505.62 344.999 1503.1 345.05 C 1492.8 338.092 1480.67 341.987 1475.59 335.127 C 1473.16 335.02 1472.52 335.359 1470.4 336.696 C 1465.87 339.562 1462.74 333.305 1457.01 331.281 L 1454.93 333.374 L 1453.56 332.457 C 1454.22 330.027 1454.86 329.232 1456.05 327.017 L 1454.8 326.321 L 1452.45 329.182 C 1447.62 329.395 1439.87 323.807 1437.2 323.835 C 1422.69 323.989 1415.03 311.388 1401.83 309.599 C 1399.06 309.439 1372.23 294.335 1367.66 292.066 C 1341.51 279.102 1313.79 267.157 1286.31 257.395 C 1221.97 234.393 1154.91 219.882 1086.81 214.228 C 1058.52 212.141 1033.47 212.385 1005.41 211.827 C 986.123 214.037 963.62 213.541 942.849 215.85 C 736.896 237.764 548.492 341.833 420.287 504.5 C 282.44 681.164 220.642 905.46 248.556 1127.79 C 259.322 1221.75 286.194 1313.15 327.994 1397.98 C 337.41 1417.13 348.042 1435.42 358.352 1454.08 L 357.575 1457.01 C 360.341 1461.65 361.742 1462.66 361.466 1467.65 L 358.622 1470.06 C 359.901 1479.12 366.097 1472.34 363.747 1484.08 C 366.837 1490 366.951 1488.91 365.018 1495 L 364.555 1496.42 C 366.943 1501.04 366.79 1494.93 368.389 1501.1 C 367.248 1502.94 367.253 1502.92 365.813 1504.69 C 367.953 1507.36 374.921 1515.09 374.182 1518.14 C 371.769 1528.1 383.249 1535.79 380.815 1545.65 C 380.324 1547.65 380.905 1549.59 381.288 1551.46 C 385.065 1554.39 384.31 1552.95 385.459 1556.97 L 384.558 1558.69 C 373.559 1547.29 351.901 1514.19 343.035 1500.48 C 290.75 1419.65 251.789 1328.39 229.604 1234.51 C 189.791 1067.41 198.352 892.417 254.288 729.992 C 261.885 707.756 270.532 685.893 280.201 664.476 C 283.358 657.308 288.397 645.292 292.363 638.87 C 293.502 635.839 294.78 633.135 296.127 630.203 z"/>
<path fill="rgb(37,35,37)" d="M 935.26 637.336 C 929.003 632.758 921.472 629.106 914.553 623.929 C 841.935 569.591 821.262 461.641 849.617 378.657 C 867.032 327.69 911.049 303.682 961.775 325.849 C 1032.67 356.83 1078.29 434.123 1107.93 502.352 L 1110.92 509.164 C 1217.16 788.571 1182.59 1133.55 1136.73 1423.11 C 1132.23 1451.48 1124.81 1479.24 1119.35 1507.28 C 1258.8 1462.2 1232.03 1290.15 1230.93 1176.94 C 1230.28 1110.83 1239 1030.98 1279.54 976.42 L 1278.77 975.186 C 1270 960.819 1268.34 943.915 1272.77 927.535 C 1284.6 883.846 1317.95 847.829 1356.14 824.533 C 1375.6 812.662 1420.92 794.056 1436.17 822.253 C 1444.72 838.065 1438.73 864.521 1433.29 880.483 C 1418.55 922.525 1389.01 963.219 1348.88 984.058 C 1340.95 988.176 1335.01 990.004 1326.5 992.218 C 1321.8 993.439 1296.41 991.666 1297.4 990.704 C 1284.27 1003.43 1276.25 1025.82 1269.9 1043.22 C 1255.6 1085.12 1252.27 1125.68 1251.85 1169.16 C 1250.96 1262.06 1270.36 1373.06 1218.56 1456.08 C 1202.07 1482.84 1178.33 1504.38 1150.1 1518.2 C 1136.89 1524.74 1127.14 1527.37 1113.15 1531.27 C 1094.22 1600.73 1065.5 1678.7 1000.21 1717.25 C 978.263 1730.21 950.606 1734.39 926.024 1727.33 C 888.326 1716.5 871.18 1687.77 859.444 1652.89 C 854.901 1641.45 853.596 1623.31 852.585 1610.9 C 846.749 1539.3 864.062 1479.98 890.542 1414.85 L 911.84 1363.01 C 831.025 1311.77 762.103 1236.44 736.924 1142.48 C 718.789 1074.8 713.169 985.847 747.4 921.881 C 755.856 906.756 770.214 889.465 787.8 885.423 C 827.299 876.347 859.961 916.714 873.821 948.435 C 896.975 1001.42 893.612 1057.62 881.445 1112.69 C 875.867 1137.94 869.968 1165.39 877.368 1190.75 C 887.816 1226.69 915.364 1248.37 946.485 1265.82 C 964.671 1200.97 972.146 1161.66 980.469 1094.77 L 980.584 1089.31 C 952.026 1077.16 929.73 1032.29 931.046 1002.04 C 932.439 970.043 942.836 947.499 965.409 925.237 L 966.906 923.234 C 966.064 922.178 966.112 922.119 965.252 921.55 C 933.002 900.198 915.797 863.231 924.796 824.842 C 928.61 808.571 937.532 790.462 950.704 777.951 L 952.132 775.261 C 944.699 770.592 941.091 767.71 934.863 761.535 C 918.642 745.463 909.534 723.564 909.573 700.729 C 909.636 681.141 919.597 654.512 933.405 640.995 L 935.26 637.336 z"/>
<path fill="rgb(239,150,180)" d="M 904.337 1409.55 C 914.631 1411.07 919.98 1413.4 926.723 1422.61 C 948.602 1452.47 946.323 1515.72 941.204 1550.55 C 936.579 1582.02 922.475 1630.31 895.737 1649.44 C 894.911 1650.03 892.976 1651.17 892.021 1651.45 C 885.015 1649.97 873.664 1656.31 865.957 1651.88 C 865.3 1651.84 864.643 1651.81 863.986 1651.77 L 863.154 1653.04 C 861.806 1652.89 860.602 1652.58 859.444 1652.89 C 854.901 1641.45 853.596 1623.31 852.585 1610.9 C 846.749 1539.3 864.062 1479.98 890.542 1414.85 C 895.243 1413.71 899.669 1411.19 904.337 1409.55 z"/>
<path fill="rgb(4,3,3)" d="M 935.26 637.336 C 939.915 634.475 948.69 635.644 953.859 636.864 C 974.931 641.838 991.929 636.794 1012.5 634.48 C 1014.51 634.254 1015.99 637.728 1016.77 639.183 C 1015.62 658.481 942.657 655.778 933.405 640.995 L 935.26 637.336 z"/>
<path fill="rgb(4,3,3)" d="M 980.584 1089.31 C 989.597 1086.02 1006.67 1090.9 1021.76 1085.1 C 1030.64 1081.69 1041.69 1072.83 1048.19 1074.01 C 1054.87 1081.97 1039.67 1091.35 1034.32 1095.07 C 1023.05 1102.92 991.503 1107.19 981.283 1097.61 L 980.469 1094.77 L 980.584 1089.31 z"/>
<path fill="rgb(4,3,3)" d="M 952.132 775.261 C 957.391 768.667 961.652 772.31 969.39 773.074 C 984.721 774.587 998.955 771.472 1013.98 769.348 C 1016.66 768.98 1018.02 770.547 1019.82 772.151 C 1021.18 775.331 1021.01 775.135 1020.23 778.552 C 1012.21 790.429 960.928 791.322 950.704 777.951 L 952.132 775.261 z"/>
<path fill="rgb(4,3,3)" d="M 966.906 923.234 C 974.556 916.487 990.784 922.576 1001.32 921.831 C 1009.51 921.253 1019.64 916.47 1026.06 920.548 C 1027.89 923.558 1027.85 923.309 1027.63 926.816 C 1021.02 940.899 976.15 937.939 965.409 925.237 L 966.906 923.234 z"/>
<path fill="rgb(238,151,187)" d="M 863.154 1653.04 L 863.986 1651.77 C 864.643 1651.81 865.3 1651.84 865.957 1651.88 C 873.664 1656.31 885.015 1649.97 892.021 1651.45 C 883.307 1656.96 872.145 1659.75 863.154 1653.04 z"/>
<path fill="rgb(247,210,190)" d="M 1564.35 591.551 C 1567.09 582.852 1569.62 576.233 1577.6 570.569 C 1582.87 566.822 1592.25 565.656 1598.43 567.558 C 1619.52 574.05 1618.7 593.27 1620.07 611.278 C 1620.62 618.361 1621.73 625.334 1623.02 632.103 C 1626.16 648.697 1631.08 664.904 1637.68 680.448 C 1661.19 735.557 1714.82 788.376 1747.74 840.974 C 1815.06 948.533 1842.53 1071.17 1807.92 1194.79 C 1782.15 1284.85 1721.67 1360.99 1639.77 1406.47 C 1503.63 1483.05 1327.87 1475.83 1191.15 1404.63 C 1122.02 1368.63 1071.17 1317.52 1033.21 1249.85 C 1032.37 1251.57 1031.51 1253.28 1030.63 1254.98 C 986.442 1340.12 891.181 1408.75 800.356 1436.17 C 679.063 1472.45 555.191 1472.5 441.254 1413.98 C 258.95 1320.35 201.405 1112.44 274.244 927.65 C 289.241 889.601 310.192 854.204 333.59 820.628 C 375.279 760.805 433.672 708.492 447.024 633.534 C 451.098 611.637 446.404 573.951 472.763 567.152 C 479.308 565.513 486.239 566.692 491.874 570.402 C 500.823 576.212 503.285 582.454 505.379 592.05 C 507.783 596.596 504.772 600.834 506.847 604.593 C 511.727 600.057 519.129 599.165 525.61 597.891 C 567.792 589.596 611.518 590.703 654.073 595.437 C 787.112 610.242 919.356 670.248 1002.8 777.452 C 1012.02 789.287 1029.65 813.58 1033.84 827.329 C 1042.85 808.806 1057.06 788.674 1069.96 772.599 C 1124.95 704.079 1202.53 652.479 1285.24 623.667 C 1367.83 594.896 1478.48 580.015 1563.79 602.48 C 1563.78 599.087 1563.45 594.634 1564.35 591.551 z"/>
<path fill="rgb(246,172,151)" d="M 539.512 947.269 C 622.377 940.049 695.282 1001.66 701.978 1084.57 C 708.673 1167.48 646.6 1239.99 563.65 1246.17 C 481.439 1252.28 409.71 1190.88 403.074 1108.71 C 396.438 1026.54 457.384 954.424 539.512 947.269 z"/>
<path fill="rgb(1,1,1)" d="M 581.081 1110.21 C 596.059 1109.6 603.419 1118.88 599.595 1133.02 C 586.521 1181.36 533.059 1195.07 505.216 1149.72 C 501.032 1141.5 493.793 1122.78 501.704 1115.76 C 531.546 1088.99 519.553 1167.22 558.777 1147.13 C 574.579 1139.04 567.757 1120.19 581.081 1110.21 z"/>
<path fill="rgb(1,1,1)" d="M 484.16 1024.3 C 524.964 1021.87 527.208 1077.08 494.6 1088.19 C 453.804 1092.9 448.702 1033.12 484.16 1024.3 z"/>
<path fill="rgb(1,1,1)" d="M 605.199 1024.26 C 609.692 1023.78 615.029 1023.61 619.347 1025.02 C 627.072 1027.52 633.442 1033.07 636.985 1040.38 C 646.462 1059.58 637.927 1079.41 619.092 1088.4 C 582.041 1092.5 569.569 1040.73 605.199 1024.26 z"/>
<path fill="rgb(246,172,151)" d="M 1503.42 946.629 C 1585.96 943.868 1655.19 1008.37 1658.27 1090.9 C 1661.34 1173.43 1597.1 1242.9 1514.59 1246.29 C 1431.63 1249.7 1361.7 1185.03 1358.61 1102.06 C 1355.52 1019.09 1420.44 949.406 1503.42 946.629 z"/>
<path fill="rgb(1,1,1)" d="M 1554.12 1108.16 C 1557.52 1108.41 1564.44 1109.37 1565.72 1112.24 C 1578.77 1141.3 1534.16 1171.65 1508.48 1166.78 C 1487.31 1162.77 1478.29 1156.54 1466.72 1143.02 C 1460.08 1132.89 1449.27 1114.59 1468.09 1108.85 C 1475.92 1106.65 1482.21 1115.18 1485.66 1121.22 C 1496.03 1139.43 1517.39 1146.91 1533.79 1131.17 C 1542.58 1122.73 1541.19 1112.07 1554.12 1108.16 z"/>
<path fill="rgb(1,1,1)" d="M 1445.18 1026.73 C 1461.23 1023.81 1476.59 1034.49 1479.47 1050.54 C 1482.34 1066.6 1471.63 1081.94 1455.57 1084.78 C 1439.56 1087.6 1424.29 1076.94 1421.42 1060.94 C 1418.56 1044.93 1429.18 1029.63 1445.18 1026.73 z"/>
<path fill="rgb(1,1,1)" d="M 1567.31 1027.02 C 1583.05 1023 1599.06 1032.54 1603.02 1048.3 C 1606.97 1064.06 1597.37 1080.03 1581.59 1083.92 C 1565.91 1087.79 1550.05 1078.25 1546.12 1062.58 C 1542.19 1046.92 1551.66 1031.02 1567.31 1027.02 z"/>
</svg>