<svg version="1.1" xmlns="http://www.w3.org/2000/svg" style="display: block;" viewBox="480 50 1100 1960" width="2048" height="2048" preserveAspectRatio="xMidYMid meet">
<path transform="translate(0,0)" fill="rgb(47,47,51)" d="M 1028.96 280.718 C 1113.61 178.773 1238.94 72.0689 1376.42 58.7712 C 1416.91 54.6279 1459.77 62.9882 1491.58 89.3325 C 1519.33 112.302 1538.69 150.908 1540.25 187.013 C 1547.19 347.701 1427.07 502.783 1277.1 552.897 C 1266.67 556.382 1244.99 564.424 1234.92 565.4 C 1228.66 566.425 1222.16 566.138 1222.13 573.855 C 1231.05 584.094 1235.22 612.545 1234.37 626.267 C 1232.78 651.375 1221.13 674.782 1202.07 691.197 C 1192.81 699.142 1175.13 709.574 1163.05 711.6 C 1159.28 712.617 1158.73 712.075 1156.5 714.496 C 1156.94 717.911 1157.26 718.231 1158.63 721.307 C 1168.53 740.985 1167.28 763.362 1161.05 784.059 C 1152.38 812.858 1117.1 844.324 1086.49 846.177 C 1090.75 864.629 1095.19 871.233 1094.22 890.851 C 1091.08 954.289 1036.62 988.019 979.561 995.314 C 952.953 1053.09 936.644 1124.54 932.625 1187.81 C 931.692 1202.51 932.253 1216.77 931.633 1231.2 C 968.297 1238.98 1001.22 1240.82 1034.03 1219.82 C 1057.94 1204.51 1070.89 1178.78 1074.96 1151.62 C 1090.55 1047.59 1130.06 941.438 1220.19 879.626 C 1251.31 858.284 1299.75 842.179 1338.34 850.063 C 1362.43 854.751 1383.6 868.973 1397.05 889.498 C 1425.36 933.069 1418.22 1001.91 1403.15 1048.94 C 1370.2 1151.76 1294.66 1237.98 1204.58 1295.59 C 1203.86 1296.05 1203.06 1296.39 1202.29 1296.74 C 1196.35 1301.43 1178.17 1312.22 1171.11 1315.36 C 1165.48 1319.6 1149.32 1327.46 1142.74 1330.68 C 1091.87 1355.4 1038.3 1374.14 983.115 1386.53 C 971.005 1389.27 956.245 1392.85 944.014 1394.26 C 942.591 1395.62 942.808 1395.07 942.112 1396.74 L 942.144 1397.64 C 945.467 1418.05 948.347 1438.52 950.782 1459.05 C 951.946 1468.49 953.977 1481.97 954.368 1491.22 C 967.548 1547.97 960.382 1620.53 953.525 1677.71 C 941.814 1754.25 916.767 1834.9 868.694 1896.83 C 864.986 1901.61 851.517 1918.38 846.847 1921.45 C 820.256 1951.75 780.544 1979.86 740.407 1987.58 C 700.619 1995.05 659.495 1986.26 626.247 1963.16 C 555.008 1914.45 530.632 1834.18 516.008 1754.38 C 515.287 1751.47 514.983 1748.05 514.606 1745.02 C 509.843 1728.94 507.216 1662.3 507.957 1643.04 C 507.303 1636.62 507.627 1630.1 507.766 1623.63 C 507.324 1602.18 509.469 1570.3 511.114 1548.92 C 515.702 1487.43 524.182 1426.3 536.501 1365.88 C 538.493 1355.74 544.028 1325.35 547.481 1316.73 C 547.865 1310.32 552.058 1294.02 553.78 1286.91 C 558.729 1266.47 563.634 1245.08 569.451 1224.94 C 570.187 1218.84 573.33 1214.43 573.727 1207.46 C 575.059 1204.18 576.205 1201.27 577.364 1197.93 C 577.447 1193.35 583.551 1172.69 585.048 1167.42 C 593.964 1135.85 603.477 1104.44 613.581 1073.23 C 700.842 797.365 841.458 507.154 1026.05 283.726 L 1028.96 280.718 z"/>
<path transform="translate(0,0)" fill="rgb(47,47,51)" d="M 569.451 1224.94 C 570.187 1218.84 573.33 1214.43 573.727 1207.46 C 576.715 1213 579.488 1211.57 583.532 1216.45 C 592.099 1224.2 601.086 1231.09 608.778 1239.93 C 714.297 1361.16 700.234 1573.46 594.623 1690.29 C 574.972 1712.03 543.256 1737.46 514.606 1745.02 C 509.843 1728.94 507.216 1662.3 507.957 1643.04 C 507.303 1636.62 507.627 1630.1 507.766 1623.63 C 507.324 1602.18 509.469 1570.3 511.114 1548.92 C 515.702 1487.43 524.182 1426.3 536.501 1365.88 C 538.493 1355.74 544.028 1325.35 547.481 1316.73 C 547.865 1310.32 552.058 1294.02 553.78 1286.91 C 558.729 1266.47 563.634 1245.08 569.451 1224.94 z"/>
<path transform="translate(0,0)" fill="rgb(47,47,51)" d="M 547.481 1316.73 C 547.572 1320.47 546.844 1321.02 549.126 1322.9 C 557.813 1330.07 568.513 1337.03 576.268 1345.12 C 601.543 1371.94 615.484 1412.64 617.109 1449.14 C 619.372 1499.93 605.76 1557.66 572.061 1596.98 C 556.354 1615.3 537.953 1626.26 513.799 1629.45 C 510.133 1629.94 508.839 1626.41 507.766 1623.63 C 507.324 1602.18 509.469 1570.3 511.114 1548.92 C 515.702 1487.43 524.182 1426.3 536.501 1365.88 C 538.493 1355.74 544.028 1325.35 547.481 1316.73 z"/>
<path transform="translate(0,0)" fill="rgb(13,11,15)" d="M 547.481 1316.73 C 548.995 1314.97 549.143 1313.89 549.715 1311.66 C 567.784 1315.68 590.945 1343.98 601.276 1359.11 C 658.097 1442.29 626.763 1629.63 509.536 1641.96 C 509.009 1642.32 508.483 1642.68 507.957 1643.04 C 507.303 1636.62 507.627 1630.1 507.766 1623.63 C 508.839 1626.41 510.133 1629.94 513.799 1629.45 C 537.953 1626.26 556.354 1615.3 572.061 1596.98 C 605.76 1557.66 619.372 1499.93 617.109 1449.14 C 615.484 1412.64 601.543 1371.94 576.268 1345.12 C 568.513 1337.03 557.813 1330.07 549.126 1322.9 C 546.844 1321.02 547.572 1320.47 547.481 1316.73 z"/>
<path transform="translate(0,0)" fill="rgb(46,44,55)" d="M 569.451 1224.94 C 570.187 1218.84 573.33 1214.43 573.727 1207.46 C 576.715 1213 579.488 1211.57 583.532 1216.45 C 578.385 1218.33 577.947 1220 574.905 1224.8 C 573.088 1225.49 571.581 1225.83 569.451 1224.94 z"/>
<path transform="translate(0,0)" fill="rgb(136,179,234)" d="M 904.129 1483.35 C 912.163 1477.81 925.681 1476.83 935.089 1478.46 C 944.904 1480.17 947.013 1486.79 953.498 1492.39 L 954.368 1491.22 C 967.548 1547.97 960.382 1620.53 953.525 1677.71 C 941.814 1754.25 916.767 1834.9 868.694 1896.83 C 864.986 1901.61 851.517 1918.38 846.847 1921.45 C 842.813 1923.48 837.424 1926.79 833.138 1927.49 C 772.13 1937.42 761.628 1842.93 761.933 1800.77 C 761.97 1795.6 761.928 1787.45 762.992 1783.02 C 762.262 1697.19 822.124 1523.29 904.129 1483.35 z"/>
<path transform="translate(0,0)" fill="rgb(202,134,222)" d="M 904.129 1483.35 C 912.163 1477.81 925.681 1476.83 935.089 1478.46 C 944.904 1480.17 947.013 1486.79 953.498 1492.39 L 954.368 1491.22 C 967.548 1547.97 960.382 1620.53 953.525 1677.71 C 951.424 1673.09 954.808 1659.79 952.378 1653.67 C 951.523 1651.52 951.631 1651.11 951.501 1648.86 L 952.321 1648.5 C 954.095 1652.82 952.039 1652.36 952.908 1658.09 L 954.088 1658.72 C 958.411 1650.1 952.436 1640.84 952.273 1634.61 L 953.403 1633.99 C 955.466 1637.1 955.116 1641.9 955.134 1645.79 C 955.451 1637.58 957.001 1637.44 956.5 1627.08 C 956.64 1628.07 955.983 1631.17 955.78 1632.35 L 954.712 1632.77 C 952.241 1628.19 954.43 1626.99 955.508 1619.92 C 953.972 1617.37 953.098 1615.68 951.793 1613.05 C 954.068 1605.38 962.761 1605.94 958.297 1593.13 C 953.27 1591.68 943.761 1592.77 941.69 1598.09 L 943.926 1601.4 C 936.377 1607.4 927 1604.59 925.971 1612.79 C 928.227 1615.78 927.484 1614.7 932.276 1616.09 C 926.842 1621.26 913.012 1615.63 912.849 1620.58 C 912.853 1621.86 912.857 1623.14 912.862 1624.42 C 908.655 1627.13 902.894 1625.63 898.133 1627.57 C 896.583 1628.2 894.239 1637.16 893.469 1637.44 C 876.174 1643.84 887.549 1655.36 872.683 1662.72 C 870.478 1663.82 862.469 1669.03 860.75 1670.61 C 863.057 1671.72 862.533 1671.49 865.024 1672.08 L 865.535 1673.44 C 862.388 1676.51 859.37 1675.49 856.546 1678.95 C 856.504 1682.38 856.908 1688.47 855.352 1691.15 L 852.633 1691.44 L 851.429 1690.34 L 854.016 1687.67 C 851.745 1687.71 851.291 1687.76 849.058 1688.19 L 846.745 1686.42 C 841.046 1690.88 841.066 1699.33 837.643 1704.89 C 836.419 1706.88 829.119 1707 827.358 1708.65 C 821.117 1714.53 815.684 1722.63 810.024 1729.16 C 809.407 1729.87 804.041 1727.97 803.85 1731.82 C 803.685 1735.13 804.37 1733.96 802.718 1736.91 C 797.4 1740.76 793.034 1742.23 789.311 1747.05 L 789.702 1748.63 L 792.609 1749.85 C 788.93 1752.14 788.506 1751.65 784.432 1749.47 C 779.078 1751.58 778.082 1752.79 776.45 1758.28 L 780.17 1759.16 L 780.266 1760.42 C 776.681 1762.71 771.086 1759.67 767.896 1764.01 C 764.895 1768.09 768.166 1780.65 762.992 1783.02 C 762.262 1697.19 822.124 1523.29 904.129 1483.35 z"/>
<path transform="translate(0,0)" fill="rgb(166,119,216)" d="M 904.129 1483.35 C 912.163 1477.81 925.681 1476.83 935.089 1478.46 C 944.904 1480.17 947.013 1486.79 953.498 1492.39 L 954.368 1491.22 C 967.548 1547.97 960.382 1620.53 953.525 1677.71 C 951.424 1673.09 954.808 1659.79 952.378 1653.67 C 951.523 1651.52 951.631 1651.11 951.501 1648.86 L 952.321 1648.5 C 954.095 1652.82 952.039 1652.36 952.908 1658.09 L 954.088 1658.72 C 958.411 1650.1 952.436 1640.84 952.273 1634.61 L 953.403 1633.99 C 955.466 1637.1 955.116 1641.9 955.134 1645.79 C 955.451 1637.58 957.001 1637.44 956.5 1627.08 C 956.64 1628.07 955.983 1631.17 955.78 1632.35 L 954.712 1632.77 C 952.241 1628.19 954.43 1626.99 955.508 1619.92 C 953.972 1617.37 953.098 1615.68 951.793 1613.05 C 954.068 1605.38 962.761 1605.94 958.297 1593.13 C 958.669 1591.81 958.284 1576.14 958.328 1573.14 C 956.309 1575.65 956.313 1576.49 953.726 1577.52 L 953.147 1575.86 C 955.102 1573.29 956.696 1571.38 958.826 1568.95 C 957.073 1568.85 958.067 1568.95 955.853 1568.6 C 954.048 1565.53 954.175 1562.42 956.054 1559.41 C 956.411 1563.16 955.838 1564.72 957.825 1566.98 L 959.465 1565.72 C 959.627 1564.95 958.874 1553.81 958.632 1552.71 L 957.463 1552.53 L 955.302 1556.87 C 950.105 1554.21 959.847 1528.13 955.055 1519.11 L 955.527 1527.52 C 953.239 1526.77 954.331 1527.32 952.632 1524.47 C 954.117 1519.64 948.124 1515.12 951.279 1507.75 C 951.923 1506.25 952.711 1500.19 952.934 1498.16 C 952.358 1501.51 952.908 1501.74 950.962 1503.79 L 948.8 1501.43 C 949.813 1498.08 950.037 1496.73 950.547 1493.24 L 947.997 1495.44 L 946.433 1494.83 C 941.47 1481.87 943.007 1490.42 936.764 1489.02 L 936.501 1487.69 L 939.639 1486.63 C 938.526 1485.06 938.146 1485.04 936.529 1483.98 L 936.567 1481.47 C 929.95 1480.75 910.84 1482.71 906.676 1488.29 L 904.849 1487.89 C 904.799 1486.19 904.615 1484.99 904.129 1483.35 z"/>
<path transform="translate(0,0)" fill="rgb(13,11,15)" d="M 577.364 1197.93 L 579.753 1199.5 C 583.854 1203.31 591.169 1208.4 596.051 1211.29 C 598.07 1213.36 600.591 1216.07 602.676 1217.95 C 618.968 1234.55 635.431 1252.74 647.162 1273.06 C 730.017 1416.64 698.751 1633.8 561.781 1734.09 C 557.168 1737.47 545.062 1743.46 542.118 1746.4 C 538.248 1748.09 531.88 1751.1 528.042 1752.23 C 523.669 1754.52 520.763 1756.92 516.008 1754.38 C 515.287 1751.47 514.983 1748.05 514.606 1745.02 C 543.256 1737.46 574.972 1712.03 594.623 1690.29 C 700.234 1573.46 714.297 1361.16 608.778 1239.93 C 601.086 1231.09 592.099 1224.2 583.532 1216.45 C 579.488 1211.57 576.715 1213 573.727 1207.46 C 575.059 1204.18 576.205 1201.27 577.364 1197.93 z"/>
<path transform="translate(0,0)" fill="rgb(13,11,15)" d="M 1158.63 721.307 L 1157.57 723.637 C 1153.57 717.527 1151.21 717.744 1143.5 716.71 C 1131.39 715.084 1050.29 693.415 1058.9 675.426 C 1064.83 672.625 1078.41 679.383 1083.58 682.789 C 1098.05 692.337 1153.07 702.983 1163.05 711.6 C 1159.28 712.617 1158.73 712.075 1156.5 714.496 C 1156.94 717.911 1157.26 718.231 1158.63 721.307 z"/>
<path transform="translate(0,0)" fill="rgb(13,11,15)" d="M 989.189 818.669 C 991.744 815.791 992.882 813.77 996.589 813.067 C 1010.19 815.713 1032.55 828.898 1047.8 832.766 C 1055.64 834.755 1083.35 840.338 1088.08 844.027 C 1087.13 845.782 1087.71 845.106 1086.49 846.177 C 1086.31 848.756 1086.31 849.819 1085.7 852.359 C 1073.71 859.247 1012.83 835.263 999.558 827.687 C 994.873 825.012 992.349 822.972 989.189 818.669 z"/>
<path transform="translate(0,0)" fill="rgb(13,11,15)" d="M 1222.13 573.855 C 1221.74 574.418 1222.05 574.042 1220.93 574.692 C 1214.6 574.062 1208.62 572.711 1202.51 570.937 C 1190.58 567.47 1135.18 548.377 1131.25 538.938 C 1130.19 536.389 1130.67 534.734 1131.65 532.301 C 1139.06 527.748 1151.85 537.148 1159.49 540.251 C 1182.22 549.48 1205.08 559.119 1229.14 564.239 C 1232.06 564.859 1230.64 562.921 1234.92 565.4 C 1228.66 566.425 1222.16 566.138 1222.13 573.855 z"/>
<path transform="translate(0,0)" fill="rgb(13,11,15)" d="M 942.144 1397.64 C 941.507 1403.26 943.286 1404.11 940.638 1407.46 C 930.837 1409.66 911.367 1415.01 903.366 1408.46 C 901.981 1405.24 901.963 1406.77 903.085 1403.73 C 909.753 1397.4 930.68 1395.44 940.022 1394.83 L 942.112 1396.74 L 942.144 1397.64 z"/>
<path transform="translate(0,0)" fill="rgb(46,44,55)" d="M 1171.11 1315.36 L 1170.55 1313.98 C 1173.74 1308.43 1179.89 1312.03 1183.68 1303.74 L 1184.73 1303.7 L 1186.05 1304.48 L 1187.86 1303.55 C 1185.5 1299.89 1182.87 1301.46 1178.65 1296.92 L 1179.41 1295.16 C 1186.97 1291.98 1188.72 1294.3 1197.51 1297.73 C 1199.22 1295.71 1198.78 1296.33 1201.32 1294.99 L 1202.29 1296.74 C 1196.35 1301.43 1178.17 1312.22 1171.11 1315.36 z"/>
<path transform="translate(0,0)" fill="rgb(46,44,55)" d="M 579.753 1199.5 C 585.145 1197.4 593.144 1197.75 597.245 1202.32 C 597.5 1204.1 597.948 1206 597.728 1207.7 L 596.051 1211.29 C 591.169 1208.4 583.854 1203.31 579.753 1199.5 z"/>
<path transform="translate(0,0)" fill="rgb(46,44,55)" d="M 542.118 1746.4 L 543.209 1747.78 L 540.657 1749.61 C 544.045 1751.43 543.318 1750.19 544.464 1752.85 C 542.036 1755.27 537.049 1755.55 533.776 1755.54 L 532.268 1755.52 C 530.403 1755.51 530.066 1755.58 528.239 1756.03 L 527.426 1754.7 L 528.042 1752.23 C 531.88 1751.1 538.248 1748.09 542.118 1746.4 z"/>
<path transform="translate(0,0)" fill="rgb(47,47,51)" d="M 597.728 1207.7 C 602.955 1206.4 601.088 1206.15 605.879 1207.57 C 608.505 1210.44 607.766 1208.81 608.231 1212.62 C 606.857 1215.4 605.639 1216.88 602.676 1217.95 C 600.591 1216.07 598.07 1213.36 596.051 1211.29 L 597.728 1207.7 z"/>
<path transform="translate(0,0)" fill="rgb(46,44,55)" d="M 1028.96 280.718 C 1034.47 280.32 1032.95 279.582 1036.25 282.345 C 1036.74 286.775 1033.61 290.275 1029.41 291.245 L 1026.05 283.726 L 1028.96 280.718 z"/>
</svg>