<svg version="1.1" xmlns="http://www.w3.org/2000/svg" style="display: block;" viewBox="0 0 2048 2048" width="2048" height="2048" preserveAspectRatio="none">
<path transform="translate(0,0)" fill="rgb(247,210,190)" d="M 1564.35 591.551 C 1567.09 582.852 1569.62 576.233 1577.6 570.569 C 1582.87 566.822 1592.25 565.656 1598.43 567.558 C 1619.52 574.05 1618.7 593.27 1620.07 611.278 C 1620.62 618.361 1621.73 625.334 1623.02 632.103 C 1626.16 648.697 1631.08 664.904 1637.68 680.448 C 1661.19 735.557 1714.82 788.376 1747.74 840.974 C 1815.06 948.533 1842.53 1071.17 1807.92 1194.79 C 1782.15 1284.85 1721.67 1360.99 1639.77 1406.47 C 1503.63 1483.05 1327.87 1475.83 1191.15 1404.63 C 1122.02 1368.63 1071.17 1317.52 1033.21 1249.85 C 1032.37 1251.57 1031.51 1253.28 1030.63 1254.98 C 986.442 1340.12 891.181 1408.75 800.356 1436.17 C 679.063 1472.45 555.191 1472.5 441.254 1413.98 C 258.95 1320.35 201.405 1112.44 274.244 927.65 C 289.241 889.601 310.192 854.204 333.59 820.628 C 375.279 760.805 433.672 708.492 447.024 633.534 C 451.098 611.637 446.404 573.951 472.763 567.152 C 479.308 565.513 486.239 566.692 491.874 570.402 C 500.823 576.212 503.285 582.454 505.379 592.05 C 507.783 596.596 504.772 600.834 506.847 604.593 C 511.727 600.057 519.129 599.165 525.61 597.891 C 567.792 589.596 611.518 590.703 654.073 595.437 C 787.112 610.242 919.356 670.248 1002.8 777.452 C 1012.02 789.287 1029.65 813.58 1033.84 827.329 C 1042.85 808.806 1057.06 788.674 1069.96 772.599 C 1124.95 704.079 1202.53 652.479 1285.24 623.667 C 1367.83 594.896 1478.48 580.015 1563.79 602.48 C 1563.78 599.087 1563.45 594.634 1564.35 591.551 z"/>
<path transform="translate(0,0)" fill="rgb(1,1,1)" d="M 1564.35 591.551 C 1567.09 582.852 1569.62 576.233 1577.6 570.569 C 1582.87 566.822 1592.25 565.656 1598.43 567.558 C 1619.52 574.05 1618.7 593.27 1620.07 611.278 C 1620.62 618.361 1621.73 625.334 1623.02 632.103 C 1626.16 648.697 1631.08 664.904 1637.68 680.448 C 1661.19 735.557 1714.82 788.376 1747.74 840.974 C 1815.06 948.533 1842.53 1071.17 1807.92 1194.79 C 1782.15 1284.85 1721.67 1360.99 1639.77 1406.47 C 1503.63 1483.05 1327.87 1475.83 1191.15 1404.63 C 1122.02 1368.63 1071.17 1317.52 1033.21 1249.85 C 1032.37 1251.57 1031.51 1253.28 1030.63 1254.98 C 986.442 1340.12 891.181 1408.75 800.356 1436.17 C 679.063 1472.45 555.191 1472.5 441.254 1413.98 C 258.95 1320.35 201.405 1112.44 274.244 927.65 C 289.241 889.601 310.192 854.204 333.59 820.628 C 375.279 760.805 433.672 708.492 447.024 633.534 C 451.098 611.637 446.404 573.951 472.763 567.152 C 479.308 565.513 486.239 566.692 491.874 570.402 C 500.823 576.212 503.285 582.454 505.379 592.05 C 502.263 661.873 480.717 714.55 438.783 770.037 C 420.569 794.137 400.533 817.485 382.935 841.811 C 321.29 927.025 286.192 1022.74 298.733 1128.71 C 305.844 1192.52 333.106 1252.39 376.562 1299.65 C 439.063 1367.83 529.784 1404.38 621.066 1407.44 C 771.687 1412.49 932.018 1349.2 996.649 1204.52 C 1002.83 1190.68 1005.84 1175.36 1013.53 1162.34 C 1022.79 1147.53 1041.53 1148.56 1052.4 1161.04 C 1053.62 1162.44 1053.99 1162.97 1055.39 1164.27 C 1063.99 1187.68 1068.53 1205.6 1082.02 1227.87 C 1095.92 1258.48 1130.44 1296.68 1156.24 1318.32 C 1239.14 1386.28 1360.08 1416.71 1465.8 1405.53 C 1750.94 1375.36 1849.24 1098.3 1703.22 869.048 C 1689.13 847.225 1674.03 826.07 1657.98 805.653 C 1595.9 725.449 1575.57 695.038 1564.35 591.551 z"/>
<path transform="translate(0,0)" fill="rgb(246,172,151)" d="M 539.512 947.269 C 622.377 940.049 695.282 1001.66 701.978 1084.57 C 708.673 1167.48 646.6 1239.99 563.65 1246.17 C 481.439 1252.28 409.71 1190.88 403.074 1108.71 C 396.438 1026.54 457.384 954.424 539.512 947.269 z"/>
<path transform="translate(0,0)" fill="rgb(1,1,1)" d="M 581.081 1110.21 C 596.059 1109.6 603.419 1118.88 599.595 1133.02 C 586.521 1181.36 533.059 1195.07 505.216 1149.72 C 501.032 1141.5 493.793 1122.78 501.704 1115.76 C 531.546 1088.99 519.553 1167.22 558.777 1147.13 C 574.579 1139.04 567.757 1120.19 581.081 1110.21 z"/>
<path transform="translate(0,0)" fill="rgb(1,1,1)" d="M 484.16 1024.3 C 524.964 1021.87 527.208 1077.08 494.6 1088.19 C 453.804 1092.9 448.702 1033.12 484.16 1024.3 z"/>
<path transform="translate(0,0)" fill="rgb(1,1,1)" d="M 605.199 1024.26 C 609.692 1023.78 615.029 1023.61 619.347 1025.02 C 627.072 1027.52 633.442 1033.07 636.985 1040.38 C 646.462 1059.58 637.927 1079.41 619.092 1088.4 C 582.041 1092.5 569.569 1040.73 605.199 1024.26 z"/>
<path transform="translate(0,0)" fill="rgb(246,172,151)" d="M 1503.42 946.629 C 1585.96 943.868 1655.19 1008.37 1658.27 1090.9 C 1661.34 1173.43 1597.1 1242.9 1514.59 1246.29 C 1431.63 1249.7 1361.7 1185.03 1358.61 1102.06 C 1355.52 1019.09 1420.44 949.406 1503.42 946.629 z"/>
<path transform="translate(0,0)" fill="rgb(1,1,1)" d="M 1554.12 1108.16 C 1557.52 1108.41 1564.44 1109.37 1565.72 1112.24 C 1578.77 1141.3 1534.16 1171.65 1508.48 1166.78 C 1487.31 1162.77 1478.29 1156.54 1466.72 1143.02 C 1460.08 1132.89 1449.27 1114.59 1468.09 1108.85 C 1475.92 1106.65 1482.21 1115.18 1485.66 1121.22 C 1496.03 1139.43 1517.39 1146.91 1533.79 1131.17 C 1542.58 1122.73 1541.19 1112.07 1554.12 1108.16 z"/>
<path transform="translate(0,0)" fill="rgb(1,1,1)" d="M 1445.18 1026.73 C 1461.23 1023.81 1476.59 1034.49 1479.47 1050.54 C 1482.34 1066.6 1471.63 1081.94 1455.57 1084.78 C 1439.56 1087.6 1424.29 1076.94 1421.42 1060.94 C 1418.56 1044.93 1429.18 1029.63 1445.18 1026.73 z"/>
<path transform="translate(0,0)" fill="rgb(1,1,1)" d="M 1567.31 1027.02 C 1583.05 1023 1599.06 1032.54 1603.02 1048.3 C 1606.97 1064.06 1597.37 1080.03 1581.59 1083.92 C 1565.91 1087.79 1550.05 1078.25 1546.12 1062.58 C 1542.19 1046.92 1551.66 1031.02 1567.31 1027.02 z"/>
</svg>